<svg xmlns="http://www.w3.org/2000/svg" viewBox="0 0 512 512">
  <!--! Font Awesome Pro 6.1.1 by @fontawesome - https://fontawesome.com License - https://fontawesome.com/license (Commercial License) Copyright 2022 Fonticons, Inc. -->
<path
     style="fill:#999999;stroke-width:0.946396;fill-opacity:1"
     d="m 460.73979,509.77265 
     c -2.94801,-0.9768 -6.99385,-2.74776 -8.99076,-3.93547 -1.99689,-1.1877 -31.53263,-29.9945 -65.63496,-64.0151 
     l -62.00424,-61.85564 -7.08264,4.41738 
     c -24.15883,15.06763 -55.19395,25.9546 -84.68707,29.70779 -10.92722,1.39057 -38.26156,1.39636 -49.05623,0.0104 
     C 151.74018,410.05203 121.34814,398.95799 95.585954,382.08954 50.166059,352.34971 17.122747,305.22423 5.5824063,253.7289 2.3415777,239.26767 0.98421185,226.01791 0.96487169,208.6554 0.93665945,183.32808 3.6111063,165.96041 11.036501,143.25095 49.843196,24.566462 185.76549,-33.296898 297.64141,21.240629 391.83837,67.159976 437.32342,173.5669 405.03556,272.47661 
     c -4.55439,13.9518 -11.99385,30.23371 -19.19878,42.0182 -2.96216,4.84498 -5.38575,9.09345 -5.38575,9.44103 0,0.34759 28.03431,28.75025 62.29847,63.11702 72.32837,72.54496 67.83092,66.89449 67.83092,85.22099 0,9.84749 -0.17169,10.7814 -3.06029,16.64658 -3.85418,7.82575 -11.39604,15.09573 -19.68341,18.97386 -8.13054,3.80474 -19.00748,4.55872 -27.09693,1.87836 
     z M 222.87616,335.39979 
     c 52.77182,-6.43421 96.44625,-45.22689 108.8456,-96.67929 17.56745,-72.89796 -29.40018,-144.587969 -103.0546,-157.299519 -10.82149,-1.867614 -31.60417,-1.860839 -43.17363,0.01408 -26.09787,4.229348 -49.64758,16.586182 -69.09817,36.256709 -25.621395,25.91107 -37.292148,54.23827 -37.292148,90.51527 0,22.66443 3.900663,39.14547 13.848622,58.51306 17.563066,34.19337 50.065936,59.02636 87.413396,66.78597 5.1629,1.07268 10.87766,2.10431 12.69947,2.29249 7.44514,0.76905 21.80918,0.57691 29.81146,-0.39877 z"
     id="path1057" />
</svg>
